# xmcd
#
# Track frame offsets: 
#        150
#        11158
#        28012
#        44267
#        64237
#        79137
#        106037
#        122161
#        139144
#        154132
#        174691
#        190064
#
# Disc length: 3015 seconds
#
# Revision: 2
# Processed by: cddbd v1.5.1PL2 Copyright (c) Steve Scherf et al.
# Submitted via: ExactAudioCopy v0.95b3
#
DISCID=9f0bc50c
DTITLE=James Hyland - Place I Call Home
DYEAR=2000
DGENRE=Country
TTITLE0=Full-Timer
TTITLE1=Place I Call Home
TTITLE2=Part Time Girlfriend
TTITLE3=Hill Country Nights
TTITLE4=Sorry Charlie
TTITLE5=In My Head
TTITLE6=Riverboat Gambler
TTITLE7=Early Days with You
TTITLE8=Texas Band
TTITLE9=Honky Tonkin' and White Trash Women
TTITLE10=I'm Going Downtown
TTITLE11=The Train Song
EXTD=
EXTT0=
EXTT1=
EXTT2=
EXTT3=
EXTT4=
EXTT5=
EXTT6=
EXTT7=
EXTT8=
EXTT9=
EXTT10=
EXTT11=
PLAYORDER=
